<svg width="1024" height="1024" viewBox="0 0 1024 1024" xmlns="http://www.w3.org/2000/svg">
  <!-- Transparent background for adaptive icon foreground -->
  
  <!-- Left wallet half -->
  <path d="M 160 320 L 448 320 L 464 368 L 448 416 L 464 464 L 448 512 L 464 560 L 448 608 L 464 656 L 448 704 L 160 704 Q 128 704 128 672 L 128 352 Q 128 320 160 320 Z" 
        fill="#1A1A1A" stroke="none"/>
  
  <!-- Right wallet half -->
  <path d="M 576 320 L 864 320 Q 896 320 896 352 L 896 448 Q 896 464 880 464 L 800 464 Q 768 464 768 512 Q 768 560 800 560 L 880 560 Q 896 560 896 576 L 896 672 Q 896 704 864 704 L 576 704 L 560 656 L 576 608 L 560 560 L 576 512 L 560 464 L 576 416 L 560 368 L 576 320 Z" 
        fill="#1A1A1A" stroke="none"/>
  
  <!-- Dollar sign -->
  <g stroke="#FFFFFF" stroke-width="40" fill="none" stroke-linecap="round">
    <!-- S curve -->
    <path d="M 320 416 Q 256 416 256 464 Q 256 512 320 512 Q 384 512 384 560 Q 384 608 320 608"/>
    <!-- Vertical line -->
    <line x1="320" y1="384" x2="320" y2="640"/>
  </g>
  
  <!-- Wallet clasp circle -->
  <circle cx="800" cy="512" r="32" fill="#4CAF50"/>
  
  <!-- Card lines on left wallet -->
  <line x1="192" y1="400" x2="416" y2="400" stroke="#2196F3" stroke-width="16" opacity="0.8"/>
  <line x1="192" y1="448" x2="368" y2="448" stroke="#2196F3" stroke-width="16" opacity="0.8"/>
  
  <!-- Highlight edges -->
  <line x1="144" y1="352" x2="144" y2="672" stroke="#FFFFFF" stroke-width="8" opacity="0.3"/>
  <line x1="880" y1="352" x2="880" y2="672" stroke="#FFFFFF" stroke-width="8" opacity="0.3"/>
</svg>
